<?xml version="1.0" encoding="utf-8"?>
<!-- Generator: Adobe Illustrator 27.2.0, SVG Export Plug-In . SVG Version: 6.00 Build 0)  -->
<svg version="1.1" id="mascot" xmlns="http://www.w3.org/2000/svg" xmlns:xlink="http://www.w3.org/1999/xlink" x="0px" y="0px"
	 viewBox="0 0 1200 1200" style="enable-background:new 0 0 1200 1200;" xml:space="preserve">
<style type="text/css">
	.st0{fill:#DEDEDE;}
	.st1{fill-rule:evenodd;clip-rule:evenodd;fill:#DEDEDE;}
</style>
<g id="goatbytes-logo-by-jared-rummler">
	<path id="body" class="st0" d="M549.32,315.92c-192.18-93.81-412.15,78.04-313.15,283.45c51.53,106.21,207.23,108.76,285.24,30.29
		c12.96-12.76,21.13-26.71,19.93-46.84c-1.99-29.7-0.8-59.8-0.4-89.7c0-7.38-2.39-9.37-9.57-9.37c-37.67,0.4-76.55-0.17-114.02,0.22
		c-7.14-0.41-7.8-1.78-7.86-9.16c0-8.23-0.07-15.74,0.1-23.95c0.05-4.75,4.19-6.58,6.58-6.58c52.42-0.4,105.05-0.2,157.47-0.2
		c7.97,0,6.98,5.58,6.98,10.76c0.6,48.25-1.28,96.99,0.4,145.31c-3.53,42.73-50.85,79.57-86.51,96.68
		c-160.97,80.16-326.5-21.46-321.92-202.72c3.61-189.05,210.54-292.84,375.93-221.45c143.78,60.41,250.6,183.07,390.88,249.56
		c119.18,51.92,94.05-1.2,59.2,138.73c-4.39,14.95-8.97,29.7-13.36,44.45c-1.4,4.78-4.19,5.78-8.97,5.98
		c-17.74,0.8-35.28,2.99-53.02,3.59c-7.38,0.2-7.77,3.59-7.77,9.17c0,42.46,0,85.11,0.2,127.57c0,5.38-0.8,8.37-6.78,6.98
		c-16.74-3.79-33.49-7.18-49.83-11.76c-55.91-14.35-91.6-60.14-99.07-116.21c-1.2-6.18-3.39-10.76-11.16-9.57
		c-35.88,5.18-70.76,13.35-104.25,27.71C555.97,785.63,486.16,860.5,440.88,943.6c-1.79,3.19-6.38,6.18-9.96,6.38
		c-10.76-0.24-21.55-0.47-31.78-0.66c-4.07-0.08-7.84,0.65-5.17-5.48c18.74-40.07,44.12-76.38,72.83-110.27
		c74.93-90.97,187.07-148.44,305-153.77c6.71-5.63,10.54-25.23,19.95-22.59c7.21,41.78,0.13,94.85,35.04,127.33
		c5.89,7.26,47.38,34.34,48.63,20.73c0.44-39.02,0.24-78.49,0.2-117.6c-0.2-7.18,1.79-10.37,10.17-10.56
		c20.73-0.6,41.46-2.19,62.19-4.19c3.19-0.4,7.77-4.98,8.97-8.37c7.77-25.51,15.15-51.03,22.13-76.54c0.6-2.39-1.99-7.18-4.19-8.17
		c-27.11-12.36-55.61-22.13-81.53-36.68C772.95,475.73,673.35,377.81,549.32,315.92"/>
	<path id="eye" class="st1" d="M716.61,473.96c13.14,0.53,23.92,10.71,23.92,23.92c0,13.21-10.71,23.92-23.92,23.92
		c-13.22,0-23.92-10.71-23.92-23.92C692.69,484.67,703.4,473.96,716.61,473.96"/>
</g>
</svg>
