<?xml version="1.0" encoding="UTF-8"?>
<svg id="Layer_1" xmlns="http://www.w3.org/2000/svg" viewBox="0 0 1000 500">
  <defs>
    <style>
      .cls-1,.cls-2,.cls-3{stroke-width:0px;}.cls-1,.cls-3{fill:#000;}.cls-2{fill:#fff;}.cls-3{fill-rule:evenodd;}
    </style>
  </defs>
  <rect class="cls-2" width="1000" height="500"/>
  <path class="cls-1"
        d="M185.89,185.31c-43.49-21.2-93.19,17.54-70.9,64.32,11.69,24.12,46.78,24.48,64.68,6.94,2.92-2.92,4.75-6.21,4.39-10.6-.37-6.58,0-13.52,0-20.47,0-1.83-.37-2.19-2.19-2.19h-25.95c-1.46,0-1.83-.37-1.83-2.19v-5.48c0-1.1,1.1-1.46,1.46-1.46h35.81c1.83,0,1.46,1.1,1.46,2.56,0,10.96-.37,21.93,0,32.89-.73,9.5-11.69,17.91-19.73,21.93-36.54,18.27-73.82-4.75-73.09-45.68.73-42.76,47.51-66.15,85.15-50.07,32.52,13.52,56.64,41.3,88.44,56.28,27.04,11.69,21.2-.37,13.52,31.43-1.1,3.29-2.19,6.58-2.92,10.23-.37,1.1-1.1,1.46-2.19,1.46-4.02,0-8.04.73-12.06.73-1.83,0-1.83.73-1.83,2.19v28.87c0,1.1,0,1.83-1.46,1.46-3.65-.73-7.67-1.46-11.33-2.56-12.79-3.29-20.83-13.52-22.29-26.31-.37-1.46-.73-2.56-2.56-2.19-8.04,1.1-16.08,2.92-23.75,6.21-20.1,8.41-35.81,25.22-46.05,44.22-.37.73-1.46,1.46-2.19,1.46h-7.31c-1.1,0-1.83,0-1.1-1.1,4.39-9.14,9.87-17.18,16.45-24.85,16.81-20.46,42.39-33.62,69.07-34.72,1.46-1.1,2.56-5.85,4.39-5.12,1.46,9.5,0,21.56,8.04,28.87,1.46,1.46,10.6,7.67,10.96,4.75v-26.68c0-1.46.37-2.19,2.19-2.56,4.75,0,9.5-.37,14.25-1.1.73,0,1.83-1.1,2.19-1.83,1.83-5.85,3.29-11.69,5.12-17.18,0-.37-.37-1.46-1.1-1.83-6.21-2.92-12.43-5.12-18.64-8.41-26.31-16.08-48.97-38.37-77.11-52.26"/>
  <path class="cls-3"
        d="M223.9,221.12c2.92,0,5.48,2.56,5.48,5.48s-2.56,5.48-5.48,5.48-5.48-2.56-5.48-5.48,2.56-5.48,5.48-5.48"/>
  <path class="cls-1"
        d="M394.46,278.31c-5.31,0-10.25-.92-14.82-2.77-4.56-1.85-8.58-4.43-12.06-7.76-3.47-3.32-6.18-7.19-8.12-11.59-1.94-4.4-2.91-9.15-2.91-14.26s.97-9.86,2.91-14.26c1.94-4.4,4.61-8.26,8.02-11.59,3.41-3.32,7.41-5.91,12.01-7.76,4.6-1.85,9.52-2.77,14.76-2.77,5.93,0,11.51,1.16,16.76,3.48,5.24,2.32,9.57,5.56,12.98,9.72l-10.32,9.37c-2.45-3.02-5.35-5.3-8.69-6.85-3.34-1.54-6.91-2.32-10.73-2.32-3.2,0-6.17.59-8.89,1.76-2.73,1.18-5.11,2.79-7.15,4.84-2.04,2.05-3.63,4.47-4.75,7.25-1.12,2.79-1.69,5.83-1.69,9.12s.58,6.35,1.74,9.17c1.16,2.82,2.78,5.26,4.85,7.3,2.08,2.05,4.5,3.66,7.25,4.84,2.76,1.18,5.77,1.76,9.04,1.76s6.47-.62,9.2-1.86c2.72-1.24,5.02-2.99,6.9-5.24,1.87-2.25,3.12-4.79,3.73-7.61h-21.15v-12.69h36.99v4.43c0,5.24-.9,10.06-2.71,14.46-1.81,4.4-4.31,8.23-7.51,11.49-3.2,3.26-6.98,5.79-11.34,7.61-4.36,1.81-9.13,2.72-14.3,2.72Z"/>
  <path class="cls-1"
        d="M461.28,278.21c-5.31,0-10.12-1.21-14.41-3.63-4.29-2.42-7.7-5.68-10.22-9.77-2.52-4.1-3.78-8.7-3.78-13.8s1.24-9.72,3.73-13.85c2.49-4.13,5.89-7.41,10.22-9.82,4.33-2.42,9.14-3.63,14.46-3.63s10.13,1.21,14.46,3.63c4.33,2.42,7.73,5.69,10.22,9.82,2.49,4.13,3.73,8.75,3.73,13.85s-1.24,9.71-3.73,13.8c-2.49,4.1-5.88,7.36-10.17,9.77-4.29,2.42-9.13,3.63-14.51,3.63ZM461.28,266.22c2.79,0,5.3-.67,7.51-2.01,2.21-1.34,3.98-3.17,5.31-5.49,1.33-2.32,1.99-4.89,1.99-7.71s-.66-5.47-1.99-7.76c-1.33-2.28-3.1-4.11-5.31-5.49-2.21-1.38-4.72-2.07-7.51-2.07s-5.21.69-7.46,2.07c-2.25,1.38-4.02,3.21-5.31,5.49-1.29,2.28-1.94,4.87-1.94,7.76s.65,5.39,1.94,7.71c1.29,2.32,3.07,4.15,5.31,5.49,2.25,1.34,4.73,2.01,7.46,2.01Z"/>
  <path class="cls-1"
        d="M509.9,278.11c-3.82,0-7.19-.69-10.12-2.07-2.93-1.38-5.21-3.27-6.85-5.69-1.63-2.42-2.45-5.2-2.45-8.36,0-5.04,1.92-8.95,5.77-11.74,3.85-2.79,9.14-4.18,15.89-4.18,4.63,0,8.99.71,13.08,2.12v-3.83c0-3.02-.95-5.3-2.86-6.85-1.91-1.54-4.7-2.32-8.38-2.32-2.25,0-4.67.35-7.25,1.06-2.59.71-5.59,1.8-8.99,3.27l-5.11-10.18c4.22-1.88,8.26-3.29,12.11-4.23,3.85-.94,7.71-1.41,11.6-1.41,7.15,0,12.72,1.7,16.71,5.09,3.99,3.39,5.98,8.18,5.98,14.36v34.05l-11.42-.05-2.37-3.68c-2.18,1.61-4.53,2.79-7.05,3.53-2.52.74-5.28,1.11-8.28,1.11ZM503.77,261.69c0,2.01.88,3.61,2.66,4.79,1.77,1.18,4.12,1.76,7.05,1.76,2.31,0,4.46-.28,6.44-.86,1.97-.57,3.75-1.43,5.31-2.57v-7.66c-1.7-.67-3.47-1.17-5.31-1.51-1.84-.34-3.82-.5-5.93-.5-3.2,0-5.71.59-7.51,1.76-1.81,1.18-2.71,2.77-2.71,4.79Z"/>
  <path class="cls-1"
        d="M568.55,278.01c-5.93,0-10.41-1.33-13.44-3.98-3.03-2.65-4.55-6.53-4.55-11.64v-26.2h-10.93v-11.49h10.93v-13.4l14-4.75v18.14h15.22v11.49h-15.22v23.37c0,2.42.54,4.15,1.64,5.19,1.09,1.04,3,1.56,5.72,1.56,1.36,0,2.61-.08,3.73-.25,1.12-.17,2.37-.49,3.73-.96v11.38c-1.43.47-3.2.84-5.31,1.11-2.11.27-3.95.4-5.52.4Z"/>
  <path class="cls-1"
        d="M603.51,278.83c-1.16,0-2.5-.05-4.04-.15-1.53-.1-3.1-.24-4.7-.4-1.6-.17-3.12-.37-4.55-.6-1.43-.23-2.66-.49-3.68-.76v-67.2c1.23-.34,2.59-.62,4.09-.86,1.5-.23,3.05-.44,4.65-.6,1.6-.17,3.17-.29,4.7-.35,1.53-.07,2.95-.1,4.24-.1,3.81,0,7.44.3,10.88.91,3.44.6,6.45,1.61,9.04,3.02,2.59,1.41,4.65,3.27,6.18,5.58,1.53,2.31,2.3,5.18,2.3,8.6,0,3.76-.97,6.96-2.91,9.61-1.94,2.65-4.55,4.48-7.82,5.48,2.04.47,3.92,1.14,5.62,2.02,1.7.88,3.2,2,4.5,3.38,1.29,1.38,2.3,3.06,3.01,5.04.71,1.98,1.07,4.35,1.07,7.11,0,6.59-2.66,11.62-7.97,15.08-5.31,3.46-13.52,5.2-24.62,5.2ZM593.5,238.84h13.49c2.52,0,4.9-.18,7.15-.55,2.25-.37,4.21-1.04,5.88-2.01,1.67-.97,2.98-2.27,3.93-3.91.95-1.64,1.43-3.73,1.43-6.27,0-2.27-.51-4.2-1.53-5.77-1.02-1.57-2.47-2.86-4.34-3.86-1.87-1-4.1-1.72-6.69-2.16-2.59-.43-5.45-.65-8.58-.65-2.52,0-4.65.07-6.39.2-1.74.14-3.18.3-4.34.5v24.48ZM593.5,244.68v27.61c1.02.14,2.55.29,4.6.45,2.04.17,4.12.25,6.23.25,3.13,0,6.18-.2,9.14-.61,2.96-.4,5.57-1.15,7.82-2.22,2.25-1.08,4.05-2.56,5.42-4.45,1.36-1.89,2.04-4.32,2.04-7.28,0-2.7-.48-4.94-1.43-6.72-.95-1.79-2.32-3.2-4.09-4.25-1.77-1.05-3.93-1.77-6.49-2.17-2.55-.4-5.4-.61-8.53-.61h-14.71Z"/>
  <path class="cls-1"
        d="M656.31,278.31c-2.22-4.11-4.37-8.38-6.45-12.81-2.09-4.43-4.04-8.91-5.85-13.44-1.81-4.53-3.47-9.06-4.97-13.59-1.5-4.53-2.79-8.98-3.87-13.35h7.05c.75,3.22,1.7,6.7,2.86,10.43,1.16,3.73,2.47,7.57,3.93,11.54,1.46,3.96,3.08,8.03,4.85,12.19s3.7,8.26,5.79,12.29c1.52-4.15,2.86-8.07,4.03-11.76,1.17-3.69,2.25-7.36,3.25-11.02,1-3.66,1.96-7.4,2.89-11.23.93-3.83,1.88-7.97,2.85-12.44h6.64c-2.22,9.75-4.71,19.23-7.48,28.44-2.76,9.21-5.79,17.63-9.06,25.26-1.3,3.02-2.63,5.62-3.99,7.81-1.37,2.18-2.89,3.98-4.56,5.39-1.68,1.41-3.63,2.45-5.85,3.12-2.22.67-4.84,1.01-7.85,1.01-1.71,0-3.27-.2-4.67-.6-1.4-.4-2.27-.71-2.61-.91l1.33-5.44c.27.2,1.04.49,2.31.86,1.26.37,2.58.55,3.94.55,1.91,0,3.63-.2,5.17-.6,1.54-.4,2.92-1.09,4.15-2.07,1.23-.97,2.34-2.23,3.33-3.78.99-1.55,1.94-3.49,2.86-5.84Z"/>
  <path class="cls-1"
        d="M687.97,225.11h21.05v5.54h-21.05v27.71c0,2.96.26,5.36.77,7.2.51,1.85,1.24,3.27,2.2,4.28.95,1.01,2.11,1.68,3.47,2.01,1.36.34,2.86.5,4.5.5,2.79,0,5.04-.32,6.74-.96,1.7-.64,3.03-1.22,3.99-1.76l1.64,5.44c-.96.6-2.62,1.29-5.01,2.07-2.39.77-4.97,1.16-7.77,1.16-3.27,0-6.01-.42-8.23-1.26-2.21-.84-3.98-2.12-5.31-3.83-1.33-1.71-2.27-3.84-2.81-6.4-.55-2.55-.82-5.57-.82-9.07v-47.96l6.64-1.21v16.52Z"/>
  <path class="cls-1"
        d="M710.57,251.11c0-4.57.66-8.55,1.99-11.94,1.33-3.39,3.07-6.23,5.21-8.51,2.15-2.28,4.6-3.98,7.36-5.09,2.76-1.11,5.6-1.66,8.53-1.66,6.47,0,11.63,2.08,15.48,6.25,3.85,4.17,5.77,10.58,5.77,19.24,0,.54-.02,1.08-.05,1.61-.04.54-.09,1.04-.15,1.51h-37.09c.2,6.38,1.8,11.28,4.8,14.71,3,3.43,7.77,5.14,14.3,5.14,3.61,0,6.47-.34,8.58-1.01,2.11-.67,3.64-1.24,4.6-1.71l1.23,5.64c-.96.54-2.74,1.18-5.36,1.91-2.62.74-5.71,1.11-9.25,1.11-4.63,0-8.58-.67-11.85-2.01-3.27-1.34-5.96-3.22-8.07-5.64-2.11-2.42-3.65-5.29-4.6-8.61-.96-3.32-1.43-6.97-1.43-10.93ZM748.07,246.98c-.14-5.44-1.43-9.67-3.88-12.69-2.45-3.02-5.93-4.53-10.42-4.53-2.39,0-4.51.47-6.39,1.41-1.87.94-3.51,2.2-4.9,3.78-1.4,1.58-2.49,3.41-3.27,5.49-.78,2.08-1.24,4.27-1.38,6.55h30.24Z"/>
  <path class="cls-1"
        d="M771.98,272.57c3.81,0,6.96-.62,9.45-1.86,2.49-1.24,3.73-3.34,3.73-6.3,0-1.41-.22-2.62-.66-3.63-.44-1.01-1.17-1.91-2.2-2.72-1.02-.81-2.37-1.58-4.04-2.32-1.67-.74-3.73-1.61-6.18-2.62-1.98-.81-3.85-1.63-5.62-2.47-1.77-.84-3.34-1.81-4.7-2.92-1.36-1.11-2.45-2.43-3.27-3.98-.82-1.54-1.23-3.43-1.23-5.64,0-4.23,1.62-7.66,4.85-10.28,3.23-2.62,7.68-3.93,13.33-3.93,3.61,0,6.59.3,8.94.91,2.35.6,4,1.14,4.96,1.61l-1.53,5.84c-.82-.4-2.2-.94-4.14-1.61-1.94-.67-4.79-1.01-8.53-1.01-1.5,0-2.91.15-4.24.45-1.33.3-2.5.77-3.53,1.41-1.02.64-1.84,1.45-2.45,2.42-.61.98-.92,2.17-.92,3.58s.27,2.63.82,3.63c.54,1.01,1.34,1.9,2.4,2.68,1.05.77,2.35,1.5,3.88,2.16,1.53.67,3.29,1.4,5.26,2.21,2.04.8,4,1.62,5.88,2.46,1.87.84,3.52,1.84,4.96,3.02,1.43,1.18,2.59,2.59,3.47,4.23.88,1.65,1.33,3.71,1.33,6.2,0,4.7-1.79,8.26-5.36,10.68s-8.47,3.63-14.66,3.63c-4.63,0-8.17-.39-10.63-1.16-2.45-.77-4.09-1.36-4.9-1.76l1.74-5.94c.2.14.65.35,1.33.66.68.3,1.6.64,2.76,1.01,1.16.37,2.54.69,4.14.96,1.6.27,3.46.4,5.57.4Z"/>
  <path class="cls-1"
        d="M800.28,277.81c-1.43,0-2.66-.5-3.68-1.51-1.02-1.01-1.53-2.22-1.53-3.63s.51-2.62,1.53-3.63c1.02-1.01,2.25-1.51,3.68-1.51s2.66.5,3.68,1.51c1.02,1.01,1.53,2.22,1.53,3.63s-.51,2.62-1.53,3.63c-1.02,1.01-2.25,1.51-3.68,1.51Z"/>
  <path class="cls-1" d="M813.15,277.2v-70.53h7.87v70.53h-7.87Z"/>
  <path class="cls-1"
        d="M863.22,278.31c-5.18,0-10-.92-14.46-2.77-4.46-1.85-8.38-4.43-11.75-7.76-3.37-3.32-6-7.19-7.87-11.59-1.87-4.4-2.81-9.15-2.81-14.26s.94-9.86,2.81-14.26c1.87-4.4,4.5-8.26,7.87-11.59,3.37-3.32,7.29-5.91,11.75-7.76,4.46-1.85,9.28-2.77,14.46-2.77s9.89.92,14.36,2.77c4.46,1.85,8.38,4.43,11.75,7.76,3.37,3.32,5.99,7.19,7.87,11.59,1.87,4.4,2.81,9.15,2.81,14.26s-.94,9.86-2.81,14.26c-1.87,4.4-4.5,8.26-7.87,11.59-3.37,3.32-7.29,5.91-11.75,7.76-4.46,1.85-9.25,2.77-14.36,2.77ZM863.22,271.16c4.09,0,7.87-.74,11.34-2.22,3.47-1.48,6.52-3.54,9.14-6.2,2.62-2.65,4.67-5.76,6.13-9.32,1.46-3.56,2.2-7.39,2.2-11.49s-.73-8.01-2.2-11.54c-1.47-3.53-3.51-6.61-6.13-9.27-2.62-2.65-5.67-4.72-9.14-6.2-3.47-1.48-7.25-2.22-11.34-2.22s-7.89.74-11.39,2.22c-3.51,1.48-6.57,3.54-9.2,6.2-2.62,2.65-4.67,5.74-6.13,9.27-1.47,3.53-2.2,7.34-2.2,11.44s.73,8.03,2.2,11.59c1.46,3.56,3.51,6.67,6.13,9.32,2.62,2.65,5.69,4.72,9.2,6.2,3.51,1.48,7.31,2.22,11.39,2.22Z"/>
</svg>
